name C:\Users\u0101727\Documents\MyRepositories\upper-imu-dc\Results\main_tracking\Case_10\kinematics.mot
datacolumns 10
datarows 28
range 3.50000000 3.77000000
endheader 
time	clav_prot	clav_elev	scapula_abduction	scapula_elevation	scapula_upward_rot	scapula_winging	plane_elv	shoulder_elv	axial_rot	
          3.50000000	        -48.85739441	         12.37350991	         -5.40498674	          0.59202665	         86.93961222	        -15.19073915	         39.20179875	         88.52091106	        -10.50593684	
          3.51000000	        -48.85797487	         12.38829622	         -5.41921391	          0.60010658	         86.92722620	        -15.19658577	         39.26504896	         88.48081400	        -10.34697947	
          3.52000000	        -48.85370098	         12.40251294	         -5.42768444	          0.60776075	         86.91151412	        -15.19919953	         39.31913194	         88.44255620	        -10.21903786	
          3.53000000	        -48.84364634	         12.41518599	         -5.42855518	          0.61442717	         86.89252264	        -15.19765879	         39.36278997	         88.40706552	        -10.12165324	
          3.54000000	        -48.82744746	         12.42551071	         -5.42068865	          0.61966034	         86.87066987	        -15.19144263	         39.39537482	         88.37473973	        -10.05349648	
          3.55000000	        -48.80549412	         12.43288401	         -5.40401338	          0.62312948	         86.84669736	        -15.18059527	         39.41711622	         88.34537956	        -10.01236770	
          3.56000000	        -48.77898200	         12.43689613	         -5.37970370	          0.62459041	         86.82154321	        -15.16578949	         39.42925496	         88.31827518	         -9.99550275	
          3.57000000	        -48.74978603	         12.43731514	         -5.35009488	          0.62386167	         86.79616854	        -15.14825661	         39.43394012	         88.29243690	        -10.00026366	
          3.58000000	        -48.72017277	         12.43408965	         -5.31833838	          0.62082642	         86.77138125	        -15.12959475	         39.43389356	         88.26690366	        -10.02488936	
          3.59000000	        -48.69242095	         12.42736690	         -5.28788075	          0.61545778	         86.74769654	        -15.11150258	         39.43193621	         88.24104131	        -10.06891467	
          3.60000000	        -48.66845314	         12.41750477	         -5.26190123	          0.60785023	         86.72527419	        -15.09550770	         39.43051041	         88.21473564	        -10.13310572	
          3.61000000	        -48.64957719	         12.40506223	         -5.24286134	          0.59823897	         86.70394064	        -15.08276122	         39.43132778	         88.18843017	        -10.21903456	
          3.62000000	        -48.63639573	         12.39076788	         -5.23227773	          0.58699958	         86.68327850	        -15.07394670	         39.43522763	         88.16300530	        -10.32843241	
          3.63000000	        -48.62888201	         12.37547438	         -5.23073356	          0.57463007	         86.66276239	        -15.06930560	         39.44225790	         88.13952351	        -10.46228604	
          3.64000000	        -48.62655636	         12.36010339	         -5.23804998	          0.56171885	         86.64190237	        -15.06873671	         39.45191988	         88.11891651	        -10.61964996	
          3.65000000	        -48.62868467	         12.34557992	         -5.25350606	          0.54890078	         86.62036835	        -15.07191306	         39.46347627	         88.10169369	        -10.79640591	
          3.66000000	        -48.63444280	         12.33275082	         -5.27602039	          0.53680150	         86.59808457	        -15.07837459	         39.47623018	         88.08772909	        -10.98438497	
          3.67000000	        -48.64302482	         12.32228543	         -5.30426206	          0.52596928	         86.57528654	        -15.08758066	         39.48972605	         88.07615818	        -11.17120366	
          3.68000000	        -48.65369947	         12.31456741	         -5.33671391	          0.51679808	         86.55252260	        -15.09893166	         39.50386665	         88.06540373	        -11.34103759	
          3.69000000	        -48.66583268	         12.30960192	         -5.37174358	          0.50945253	         86.53057405	        -15.11178335	         39.51895940	         88.05334686	        -11.47650112	
          3.70000000	        -48.67888742	         12.30697684	         -5.40773038	          0.50381659	         86.51026893	        -15.12547571	         39.53569471	         88.03765667	        -11.56168631	
          3.71000000	        -48.69242821	         12.30595258	         -5.44328947	          0.49951780	         86.49222253	        -15.13940532	         39.55505358	         88.01620934	        -11.58592317	
          3.72000000	        -48.70619299	         12.30569337	         -5.47763282	          0.49604291	         86.47659756	        -15.15317423	         39.57823603	         87.98742764	        -11.54700936	
          3.73000000	        -48.72002307	         12.30531896	         -5.51060994	          0.49275238	         86.46291088	        -15.16658427	         39.60658199	         87.95059293	        -11.45238343	
          3.74000000	        -48.73376111	         12.30398335	         -5.54258823	          0.48893665	         86.44999554	        -15.17958058	         39.64148747	         87.90593085	        -11.31759550	
          3.75000000	        -48.74727181	         12.30122706	         -5.57446412	          0.48407163	         86.43616470	        -15.19230394	         39.68432759	         87.85434164	        -11.16260146	
          3.76000000	        -48.76034962	         12.29720278	         -5.60741201	          0.47800655	         86.41942914	        -15.20502012	         39.73631371	         87.79710191	        -11.00705417	
          3.77000000	        -48.77260786	         12.29272974	         -5.64255214	          0.47103996	         86.39771877	        -15.21800024	         39.79838656	         87.73558226	        -10.86593837	
